# xmcd
#
# Track frame offsets:
#	150
#	16050
#	35625
#	49875
#	66075
#	80400
#	99300
#	112425
#	127575
#	139050
#	156900
#	175875
#	198375
#	215925
#	236175
#
# Disc length: 3361 seconds
#
# Revision: 1
# Processed by: cddbd v1.5.2PL0 Copyright (c) Steve Scherf et al.
# Submitted via: audiograbber 1.83.01
#
DISCID=d80d1f0f
DTITLE=Quik Hitz - QH-010
DYEAR=1900
DGENRE=
TTITLE0=Martina McBride - Tryin' To Find A Reason
TTITLE1=Martina McBride - Anyway
TTITLE2=Martina McBride - Valentine
TTITLE3=Martina McBride - A Broken Wing
TTITLE4=Martina McBride - In My Daughter's Eyes
TTITLE5=Martina McBride - Concrete Angel
TTITLE6=Martina McBride - I Love You
TTITLE7=Martina McBride - Independence Day
TTITLE8=Martina McBride - My Baby Loves Me
TTITLE9=Martina McBride - Blessed
TTITLE10=Martina McBride - Whatever You Say
TTITLE11=Martina McBride - Love's The Only House
TTITLE12=Martina McBride - How Far
TTITLE13=Martina McBride - Does He Love You (Duet)
TTITLE14=Martina McBride - Tryin' To Find A Reason (Duet)
EXTD=
EXTT0=
EXTT1=
EXTT2=
EXTT3=
EXTT4=
EXTT5=
EXTT6=
EXTT7=
EXTT8=
EXTT9=
EXTT10=
EXTT11=
EXTT12=
EXTT13=
EXTT14=
PLAYORDER=
